<svg viewBox="0 0 24 24" xmlns="http://www.w3.org/2000/svg" xmlns:xlink="http://www.w3.org/1999/xlink" width="24.000000" height="24.000000" fill="none" customFrame="#000000">
	<rect id="shield-check" width="24.000000" height="24.000000" x="0.000000" y="0.000000" />
	<path id="Вектор 39" d="M12.34 21.95C12.2319 21.9866 12.1183 22.0045 12.0041 22.0028C11.89 22.001 11.777 21.9798 11.67 21.94C7.5 20.5 4 18 4 13L4 5.99996C4 5.82442 4.04621 5.65198 4.13397 5.49996C4.22174 5.34794 4.34798 5.2217 4.5 5.13394C4.65202 5.04617 4.82446 4.99996 5 4.99996C7 4.99996 9.5 3.79996 11.24 2.27996C11.3804 2.16 11.5472 2.07498 11.7268 2.03185C11.9064 1.98873 12.0936 1.98873 12.2732 2.03185C12.4528 2.07498 12.6196 2.16 12.76 2.27996C14.51 3.80996 17 4.99996 19 4.99996C19.1755 4.99996 19.348 5.04617 19.5 5.13394C19.652 5.2217 19.7783 5.34794 19.866 5.49996C19.9538 5.65198 20 5.82442 20 5.99996L20 13C20 18 16.5 20.5 12.34 21.95Z" fill-rule="nonzero" stroke="rgb(255,255,255)" stroke-linecap="round" stroke-linejoin="round" stroke-width="2.000000" />
	<path id="Вектор 40" d="M9 12L11 14L15 10" fill-rule="nonzero" stroke="rgb(255,255,255)" stroke-linecap="round" stroke-linejoin="round" stroke-width="2.000000" />
</svg>
